<svg width="20" height="12" viewBox="0 0 20 12" fill="none" xmlns="http://www.w3.org/2000/svg">
<path fill-rule="evenodd" clip-rule="evenodd" d="M18.3866 0H17.2616C16.6402 0 16.1365 0.503678 16.1365 1.125V10.875C16.1365 11.4963 16.6402 12 17.2616 12H18.3866C19.008 12 19.5117 11.4963 19.5117 10.875V1.125C19.5117 0.503678 19.008 0 18.3866 0ZM12.0116 2.625H13.1366C13.758 2.625 14.2617 3.12868 14.2617 3.75V10.875C14.2617 11.4963 13.758 12 13.1366 12H12.0116C11.3902 12 10.8865 11.4963 10.8865 10.875V3.75C10.8865 3.12868 11.3902 2.625 12.0116 2.625ZM7.88663 5.24854H6.76156C6.1402 5.24854 5.63649 5.75221 5.63649 6.37353V10.8735C5.63649 11.4948 6.1402 11.9985 6.76156 11.9985H7.88663C8.50798 11.9985 9.01169 11.4948 9.01169 10.8735V6.37353C9.01169 5.75221 8.50798 5.24854 7.88663 5.24854ZM2.63685 7.49845H1.51178C0.890428 7.49845 0.386719 8.00213 0.386719 8.62345V10.8734C0.386719 11.4948 0.890428 11.9984 1.51178 11.9984H2.63685C3.25821 11.9984 3.76192 11.4948 3.76192 10.8734V8.62345C3.76192 8.00213 3.25821 7.49845 2.63685 7.49845Z" fill="black"/>
</svg>
