<svg width="18" height="12" viewBox="0 0 18 12" fill="none" xmlns="http://www.w3.org/2000/svg">
<path fill-rule="evenodd" clip-rule="evenodd" d="M8.87604 2.49223C11.3031 2.49234 13.6373 3.42412 15.3963 5.095C15.5288 5.224 15.7405 5.22237 15.8709 5.09135L17.1371 3.81459C17.2032 3.74814 17.24 3.65812 17.2394 3.56447C17.2389 3.47081 17.201 3.38123 17.1342 3.31556C12.5174 -1.10519 5.23393 -1.10519 0.617165 3.31556C0.550288 3.38119 0.512343 3.47074 0.511726 3.56439C0.51111 3.65805 0.547872 3.74809 0.613879 3.81459L1.8804 5.09135C2.01077 5.22257 2.22265 5.2242 2.35503 5.095C4.11424 3.42401 6.44875 2.49222 8.87604 2.49223ZM8.87535 6.64759C10.2089 6.64751 11.4948 7.14275 12.4832 8.03707C12.6169 8.164 12.8275 8.16124 12.9579 8.03087L14.2226 6.75411C14.2892 6.68714 14.3261 6.59629 14.3252 6.50188C14.3242 6.40748 14.2854 6.3174 14.2175 6.25179C11.2074 3.45418 6.54588 3.45418 3.53579 6.25179C3.4678 6.3174 3.42901 6.40752 3.42811 6.50196C3.42722 6.59639 3.46431 6.68724 3.53105 6.75411L4.79538 8.03087C4.92571 8.16124 5.13631 8.164 5.27001 8.03707C6.25782 7.14334 7.54272 6.64814 8.87535 6.64759ZM11.4082 9.44054C11.4101 9.53521 11.3729 9.62648 11.3053 9.69281L9.11759 11.8987C9.05346 11.9635 8.96603 12 8.8748 12C8.78357 12 8.69614 11.9635 8.63201 11.8987L6.44398 9.69281C6.37639 9.62643 6.3392 9.53513 6.34121 9.44046C6.34321 9.34579 6.38423 9.25614 6.45457 9.19268C7.85169 8.01199 9.89791 8.01199 11.295 9.19268C11.3653 9.25619 11.4063 9.34587 11.4082 9.44054Z" fill="black"/>
</svg>
